# www.echoar.xyz
mtllib Glass Bottle.mtl
o node_MeshObject-2075125760-PolyPaper21_mesh_m0-PolyPaper21_-57482
v 0.127170 1.317696 -0.943516
v 0.127170 1.317696 -0.943516
v 0.136719 1.317696 -0.914127
v 0.136719 1.135719 -0.914127
v 0.136719 1.135719 -0.914127
v 0.127170 1.135719 -0.943516
v 0.136719 1.317696 -0.914127
v 0.136719 1.317696 -0.914127
v 0.161719 1.317696 -0.895963
v 0.161719 1.135719 -0.895964
v 0.161719 1.135719 -0.895964
v 0.136719 1.135719 -0.914127
v 0.161719 1.317696 -0.895963
v 0.161719 1.317696 -0.895963
v 0.192621 1.317696 -0.895963
v 0.192621 1.135719 -0.895964
v 0.192621 1.135719 -0.895964
v 0.161719 1.135719 -0.895964
v 0.192621 1.317696 -0.895963
v 0.192621 1.317696 -0.895963
v 0.217621 1.317696 -0.914127
v 0.217621 1.135719 -0.914127
v 0.217621 1.135719 -0.914127
v 0.192621 1.135719 -0.895964
v 0.217621 1.317696 -0.914127
v 0.217621 1.317696 -0.914127
v 0.227170 1.317696 -0.943516
v 0.227170 1.135719 -0.943516
v 0.227170 1.135719 -0.943516
v 0.217621 1.135719 -0.914127
v 0.227170 1.317696 -0.943516
v 0.227170 1.317696 -0.943516
v 0.217621 1.317696 -0.972906
v 0.217621 1.135719 -0.972906
v 0.217621 1.135719 -0.972906
v 0.227170 1.135719 -0.943516
v 0.217621 1.317696 -0.972906
v 0.217621 1.317696 -0.972906
v 0.192621 1.317696 -0.991069
v 0.192621 1.135719 -0.991069
v 0.192621 1.135719 -0.991069
v 0.217621 1.135719 -0.972906
v 0.192621 1.317696 -0.991069
v 0.192621 1.317696 -0.991069
v 0.161719 1.317696 -0.991069
v 0.161719 1.135719 -0.991069
v 0.161719 1.135719 -0.991069
v 0.192621 1.135719 -0.991069
v 0.161719 1.317696 -0.991069
v 0.161719 1.317696 -0.991069
v 0.136719 1.317696 -0.972906
v 0.136719 1.135719 -0.972906
v 0.136719 1.135719 -0.972906
v 0.161719 1.135719 -0.991069
v 0.136719 1.317696 -0.972906
v 0.136719 1.317696 -0.972906
v 0.127170 1.317696 -0.943516
v 0.127170 1.135719 -0.943516
v 0.127170 1.135719 -0.943516
v 0.136719 1.135719 -0.972906
v 0.136719 1.317696 -0.972906
v 0.161719 1.317696 -0.991069
v 0.161719 1.317696 -0.991069
v 0.192621 1.317696 -0.991069
v 0.192621 1.317696 -0.991069
v 0.217621 1.317696 -0.972906
v 0.217621 1.317696 -0.972906
v 0.227170 1.317696 -0.943516
v 0.227170 1.317696 -0.943516
v 0.217621 1.317696 -0.914127
v 0.217621 1.317696 -0.914127
v 0.192621 1.317696 -0.895963
v 0.192621 1.317696 -0.895963
v 0.161719 1.317696 -0.895963
v 0.161719 1.317696 -0.895963
v 0.136719 1.317696 -0.914127
v 0.127170 1.317696 -0.943516
v 0.127170 1.317696 -0.943516
v 0.127170 1.317696 -0.943516
v 0.127170 1.317696 -0.943516
v 0.127170 1.317696 -0.943516
v 0.127170 1.135719 -0.943516
v 0.136719 1.135719 -0.914127
v 0.161719 1.135719 -0.895964
v 0.161719 1.135719 -0.895964
v 0.192621 1.135719 -0.895964
v 0.217621 1.135719 -0.914127
v 0.227170 1.135719 -0.943516
v 0.217621 1.135719 -0.972906
v 0.192621 1.135719 -0.991069
v 0.161719 1.135719 -0.991069
v 0.136719 1.135719 -0.972906
v 0.136719 1.135719 -0.972906
v 0.123209 1.275071 -0.950322
v 0.123209 1.275071 -0.950322
v 0.126871 1.274552 -0.922093
v 0.126274 1.164571 -0.924038
v 0.126274 1.164571 -0.924038
v 0.122612 1.165090 -0.952267
v 0.126871 1.274552 -0.922093
v 0.126871 1.274552 -0.922093
v 0.144159 1.274058 -0.899479
v 0.143562 1.164077 -0.901423
v 0.143562 1.164077 -0.901423
v 0.126274 1.164571 -0.924038
v 0.144159 1.274058 -0.899479
v 0.170441 1.273722 -0.888537
v 0.169843 1.163741 -0.890482
v 0.143562 1.164077 -0.901423
v 0.170441 1.273722 -0.888537
v 0.170441 1.273722 -0.888537
v 0.198674 1.273634 -0.892202
v 0.198076 1.163652 -0.894146
v 0.198076 1.163652 -0.894146
v 0.169843 1.163741 -0.890482
v 0.198674 1.273634 -0.892202
v 0.198674 1.273634 -0.892202
v 0.221293 1.273816 -0.909489
v 0.220696 1.163835 -0.911434
v 0.220696 1.163835 -0.911434
v 0.198076 1.163652 -0.894146
v 0.221293 1.273816 -0.909489
v 0.221293 1.273816 -0.909489
v 0.232239 1.274222 -0.935768
v 0.231641 1.164240 -0.937713
v 0.231641 1.164240 -0.937713
v 0.220696 1.163835 -0.911434
v 0.232239 1.274222 -0.935768
v 0.232239 1.274222 -0.935768
v 0.228577 1.274741 -0.963997
v 0.227979 1.164759 -0.965942
v 0.227979 1.164759 -0.965942
v 0.231641 1.164240 -0.937713
v 0.228577 1.274741 -0.963997
v 0.228577 1.274741 -0.963997
v 0.211289 1.275234 -0.986612
v 0.210691 1.165253 -0.988556
v 0.210691 1.165253 -0.988556
v 0.227979 1.164759 -0.965942
v 0.211289 1.275234 -0.986612
v 0.211289 1.275234 -0.986612
v 0.185007 1.275571 -0.997553
v 0.184410 1.165589 -0.999498
v 0.184410 1.165589 -0.999498
v 0.210691 1.165253 -0.988556
v 0.185007 1.275571 -0.997553
v 0.185007 1.275571 -0.997553
v 0.156774 1.275659 -0.993889
v 0.156177 1.165678 -0.995833
v 0.156177 1.165678 -0.995833
v 0.184410 1.165589 -0.999498
v 0.156774 1.275659 -0.993889
v 0.156774 1.275659 -0.993889
v 0.134154 1.275476 -0.976601
v 0.133557 1.165495 -0.978546
v 0.133557 1.165495 -0.978546
v 0.156177 1.165678 -0.995833
v 0.134154 1.275476 -0.976601
v 0.134154 1.275476 -0.976601
v 0.123209 1.275071 -0.950322
v 0.122612 1.165090 -0.952267
v 0.122612 1.165090 -0.952267
v 0.133557 1.165495 -0.978546
v 0.134154 1.275476 -0.976601
v 0.156774 1.275659 -0.993889
v 0.156774 1.275659 -0.993889
v 0.185007 1.275571 -0.997553
v 0.185007 1.275571 -0.997553
v 0.211289 1.275234 -0.986612
v 0.211289 1.275234 -0.986612
v 0.228577 1.274741 -0.963997
v 0.232239 1.274222 -0.935768
v 0.232239 1.274222 -0.935768
v 0.221293 1.273816 -0.909489
v 0.221293 1.273816 -0.909489
v 0.198674 1.273634 -0.892202
v 0.198674 1.273634 -0.892202
v 0.170441 1.273722 -0.888537
v 0.170441 1.273722 -0.888537
v 0.144159 1.274058 -0.899479
v 0.144159 1.274058 -0.899479
v 0.126871 1.274552 -0.922093
v 0.123209 1.275071 -0.950322
v 0.123209 1.275071 -0.950322
v 0.123209 1.275071 -0.950322
v 0.123209 1.275071 -0.950322
v 0.123209 1.275071 -0.950322
v 0.123209 1.275071 -0.950322
v 0.123209 1.275071 -0.950322
v 0.123209 1.275071 -0.950322
v 0.123209 1.275071 -0.950322
v 0.122612 1.165090 -0.952267
v 0.126274 1.164571 -0.924038
v 0.126274 1.164571 -0.924038
v 0.143562 1.164077 -0.901423
v 0.169843 1.163741 -0.890482
v 0.169843 1.163741 -0.890482
v 0.198076 1.163652 -0.894146
v 0.198076 1.163652 -0.894146
v 0.220696 1.163835 -0.911434
v 0.231641 1.164240 -0.937713
v 0.227979 1.164759 -0.965942
v 0.210691 1.165253 -0.988556
v 0.210691 1.165253 -0.988556
v 0.184410 1.165589 -0.999498
v 0.184410 1.165589 -0.999498
v 0.156177 1.165678 -0.995833
v 0.133557 1.165495 -0.978546
v 0.133557 1.165495 -0.978546
v 0.133557 1.165495 -0.978546
v 0.133557 1.165495 -0.978546
v 0.133557 1.165495 -0.978546
v 0.133557 1.165495 -0.978546
v 0.134526 1.347028 -0.958044
v 0.134526 1.347028 -0.958044
v 0.134526 1.347028 -0.930232
v 0.129771 1.310632 -0.928687
v 0.129771 1.310632 -0.928687
v 0.129771 1.310632 -0.959589
v 0.134526 1.347028 -0.930232
v 0.134526 1.347028 -0.930232
v 0.150874 1.347028 -0.907732
v 0.147935 1.310632 -0.903687
v 0.147935 1.310632 -0.903687
v 0.129771 1.310632 -0.928687
v 0.150874 1.347028 -0.907732
v 0.150874 1.347028 -0.907732
v 0.177324 1.347028 -0.899138
v 0.177324 1.310632 -0.894138
v 0.177324 1.310632 -0.894138
v 0.147935 1.310632 -0.903687
v 0.177324 1.347028 -0.899138
v 0.203774 1.347028 -0.907732
v 0.206713 1.310632 -0.903687
v 0.177324 1.310632 -0.894138
v 0.203774 1.347028 -0.907732
v 0.203774 1.347028 -0.907732
v 0.220121 1.347028 -0.930232
v 0.224877 1.310632 -0.928687
v 0.224877 1.310632 -0.928687
v 0.206713 1.310632 -0.903687
v 0.220121 1.347028 -0.930232
v 0.220121 1.347028 -0.930232
v 0.220121 1.347028 -0.958044
v 0.224877 1.310632 -0.959589
v 0.224877 1.310632 -0.959589
v 0.224877 1.310632 -0.928687
v 0.220121 1.347028 -0.958044
v 0.220121 1.347028 -0.958044
v 0.203774 1.347028 -0.980544
v 0.206713 1.310632 -0.984589
v 0.206713 1.310632 -0.984589
v 0.224877 1.310632 -0.959589
v 0.203774 1.347028 -0.980544
v 0.203774 1.347028 -0.980544
v 0.177324 1.347028 -0.989138
v 0.177324 1.310632 -0.994138
v 0.177324 1.310632 -0.994138
v 0.206713 1.310632 -0.984589
v 0.177324 1.347028 -0.989138
v 0.177324 1.347028 -0.989138
v 0.150874 1.347028 -0.980544
v 0.147935 1.310632 -0.984589
v 0.147935 1.310632 -0.984589
v 0.177324 1.310632 -0.994138
v 0.150874 1.347028 -0.980544
v 0.150874 1.347028 -0.980544
v 0.134526 1.347028 -0.958044
v 0.129771 1.310632 -0.959589
v 0.129771 1.310632 -0.959589
v 0.147935 1.310632 -0.984589
v 0.150874 1.347028 -0.980544
v 0.177324 1.347028 -0.989138
v 0.177324 1.347028 -0.989138
v 0.203774 1.347028 -0.980544
v 0.203774 1.347028 -0.980544
v 0.220121 1.347028 -0.958044
v 0.220121 1.347028 -0.930232
v 0.220121 1.347028 -0.930232
v 0.203774 1.347028 -0.907732
v 0.203774 1.347028 -0.907732
v 0.177324 1.347028 -0.899138
v 0.177324 1.347028 -0.899138
v 0.150874 1.347028 -0.907732
v 0.150874 1.347028 -0.907732
v 0.134526 1.347028 -0.930232
v 0.134526 1.347028 -0.958044
v 0.134526 1.347028 -0.958044
v 0.134526 1.347028 -0.958044
v 0.134526 1.347028 -0.958044
v 0.134526 1.347028 -0.958044
v 0.134526 1.347028 -0.958044
v 0.134526 1.347028 -0.958044
v 0.129771 1.310632 -0.959589
v 0.129771 1.310632 -0.928687
v 0.129771 1.310632 -0.928687
v 0.147935 1.310632 -0.903687
v 0.147935 1.310632 -0.903687
v 0.177324 1.310632 -0.894138
v 0.177324 1.310632 -0.894138
v 0.206713 1.310632 -0.903687
v 0.206713 1.310632 -0.903687
v 0.224877 1.310632 -0.928687
v 0.224877 1.310632 -0.928687
v 0.224877 1.310632 -0.959589
v 0.224877 1.310632 -0.959589
v 0.206713 1.310632 -0.984589
v 0.177324 1.310632 -0.994138
v 0.147935 1.310632 -0.984589
v 0.147935 1.310632 -0.984589
v 0.147935 1.310632 -0.984589
v 0.147935 1.310632 -0.984589
v 0.147935 1.310632 -0.984589
v 0.147935 1.310632 -0.984589
v 0.150874 1.347028 -0.980544
v 0.150874 1.347028 -0.980544
v 0.177324 1.347028 -0.989138
v 0.177324 1.412539 -0.969138
v 0.177324 1.412539 -0.969138
v 0.162629 1.412539 -0.964364
v 0.177324 1.347028 -0.989138
v 0.177324 1.347028 -0.989138
v 0.203774 1.347028 -0.980544
v 0.192019 1.412539 -0.964364
v 0.192019 1.412539 -0.964364
v 0.177324 1.412539 -0.969138
v 0.203774 1.347028 -0.980544
v 0.203774 1.347028 -0.980544
v 0.220121 1.347028 -0.958044
v 0.201100 1.412539 -0.951864
v 0.201100 1.412539 -0.951864
v 0.192019 1.412539 -0.964364
v 0.220121 1.347028 -0.958044
v 0.220121 1.347028 -0.958044
v 0.220121 1.347028 -0.930232
v 0.201100 1.412539 -0.936413
v 0.201100 1.412539 -0.936413
v 0.201100 1.412539 -0.951864
v 0.220121 1.347028 -0.930232
v 0.220121 1.347028 -0.930232
v 0.203774 1.347028 -0.907732
v 0.192019 1.412539 -0.923913
v 0.192019 1.412539 -0.923913
v 0.201100 1.412539 -0.936413
v 0.203774 1.347028 -0.907732
v 0.203774 1.347028 -0.907732
v 0.177324 1.347028 -0.899138
v 0.177324 1.412539 -0.919138
v 0.177324 1.412539 -0.919138
v 0.192019 1.412539 -0.923913
v 0.177324 1.347028 -0.899138
v 0.177324 1.347028 -0.899138
v 0.150874 1.347028 -0.907732
v 0.162629 1.412539 -0.923913
v 0.162629 1.412539 -0.923913
v 0.177324 1.412539 -0.919138
v 0.150874 1.347028 -0.907732
v 0.150874 1.347028 -0.907732
v 0.134526 1.347028 -0.930232
v 0.153547 1.412539 -0.936413
v 0.153547 1.412539 -0.936413
v 0.162629 1.412539 -0.923913
v 0.134526 1.347028 -0.930232
v 0.134526 1.347028 -0.930232
v 0.134526 1.347028 -0.958044
v 0.153547 1.412539 -0.951864
v 0.153547 1.412539 -0.951864
v 0.153547 1.412539 -0.936413
v 0.134526 1.347028 -0.958044
v 0.134526 1.347028 -0.958044
v 0.150874 1.347028 -0.980544
v 0.162629 1.412539 -0.964364
v 0.162629 1.412539 -0.964364
v 0.153547 1.412539 -0.951864
v 0.162629 1.412539 -0.964364
v 0.177324 1.412539 -0.969138
v 0.177324 1.412539 -0.969138
v 0.192019 1.412539 -0.964364
v 0.192019 1.412539 -0.964364
v 0.201100 1.412539 -0.951864
v 0.201100 1.412539 -0.951864
v 0.201100 1.412539 -0.936413
v 0.201100 1.412539 -0.936413
v 0.192019 1.412539 -0.923913
v 0.192019 1.412539 -0.923913
v 0.177324 1.412539 -0.919138
v 0.177324 1.412539 -0.919138
v 0.162629 1.412539 -0.923913
v 0.162629 1.412539 -0.923913
v 0.153547 1.412539 -0.936413
v 0.153547 1.412539 -0.951864
v 0.153547 1.412539 -0.951864
v 0.153547 1.412539 -0.951864
v 0.153547 1.412539 -0.951864
v 0.153547 1.412539 -0.951864
v 0.153547 1.412539 -0.951864
v 0.153547 1.412539 -0.951864
v 0.153547 1.412539 -0.951864
v 0.162629 1.412539 -0.964364
v 0.162629 1.412539 -0.964364
v 0.177324 1.412539 -0.969138
v 0.177324 1.467132 -0.969138
v 0.177324 1.467132 -0.969138
v 0.162629 1.467132 -0.964364
v 0.177324 1.412539 -0.969138
v 0.177324 1.412539 -0.969138
v 0.192019 1.412539 -0.964364
v 0.192019 1.467132 -0.964364
v 0.192019 1.467132 -0.964364
v 0.177324 1.467132 -0.969138
v 0.192019 1.412539 -0.964364
v 0.201100 1.412539 -0.951864
v 0.201100 1.467132 -0.951864
v 0.192019 1.467132 -0.964364
v 0.201100 1.412539 -0.951864
v 0.201100 1.412539 -0.936413
v 0.201100 1.467132 -0.936413
v 0.201100 1.467132 -0.951864
v 0.201100 1.412539 -0.936413
v 0.192019 1.412539 -0.923913
v 0.192019 1.467132 -0.923913
v 0.201100 1.467132 -0.936413
v 0.192019 1.412539 -0.923913
v 0.192019 1.412539 -0.923913
v 0.177324 1.412539 -0.919138
v 0.177324 1.467132 -0.919138
v 0.177324 1.467132 -0.919138
v 0.192019 1.467132 -0.923913
v 0.177324 1.412539 -0.919138
v 0.177324 1.412539 -0.919138
v 0.162629 1.412539 -0.923913
v 0.162629 1.467132 -0.923913
v 0.162629 1.467132 -0.923913
v 0.177324 1.467132 -0.919138
v 0.162629 1.412539 -0.923913
v 0.153547 1.412539 -0.936413
v 0.153547 1.467132 -0.936413
v 0.162629 1.467132 -0.923913
v 0.153547 1.412539 -0.936413
v 0.153547 1.412539 -0.951864
v 0.153547 1.467132 -0.951864
v 0.153547 1.467132 -0.936413
v 0.153547 1.412539 -0.951864
v 0.162629 1.412539 -0.964364
v 0.162629 1.467132 -0.964364
v 0.153547 1.467132 -0.951864
v 0.162629 1.467132 -0.964364
v 0.177324 1.467132 -0.969138
v 0.177324 1.467132 -0.969138
v 0.192019 1.467132 -0.964364
v 0.192019 1.467132 -0.964364
v 0.201100 1.467132 -0.951864
v 0.201100 1.467132 -0.951864
v 0.201100 1.467132 -0.936413
v 0.201100 1.467132 -0.936413
v 0.192019 1.467132 -0.923913
v 0.192019 1.467132 -0.923913
v 0.177324 1.467132 -0.919138
v 0.177324 1.467132 -0.919138
v 0.162629 1.467132 -0.923913
v 0.162629 1.467132 -0.923913
v 0.153547 1.467132 -0.936413
v 0.153547 1.467132 -0.951864
v 0.153547 1.467132 -0.951864
v 0.153547 1.467132 -0.951864
v 0.153547 1.467132 -0.951864
v 0.153547 1.467132 -0.951864
v 0.153547 1.467132 -0.951864
vn -0.9511 0.0000 0.3090
vn -0.5878 -0.0000 0.8090
vn 0.0000 -0.0000 1.0000
vn 0.5878 -0.0000 0.8090
vn 0.9511 -0.0000 0.3090
vn 0.9511 -0.0000 -0.3090
vn 0.5878 0.0000 -0.8090
vn 0.0000 0.0000 -1.0000
vn -0.5878 0.0000 -0.8090
vn -0.9511 0.0000 -0.3090
vn 0.0000 1.0000 0.0000
vn 0.0000 -1.0000 0.0000
vn -0.9917 0.0031 0.1287
vn -0.7945 -0.0064 0.6072
vn -0.3844 -0.0142 0.9230
vn 0.1286 -0.0182 0.9915
vn 0.6072 -0.0173 0.7943
vn 0.9231 -0.0118 0.3843
vn 0.9917 -0.0031 -0.1287
vn 0.7945 0.0064 -0.6072
vn 0.3844 0.0142 -0.9230
vn -0.1286 0.0182 -0.9915
vn -0.6072 0.0173 -0.7943
vn -0.9231 0.0118 -0.3843
vn 0.0054 0.9998 0.0177
vn -0.0054 -0.9998 -0.0177
vn -0.9916 0.1296 0.0000
vn -0.8022 0.1296 0.5828
vn -0.3064 0.1296 0.9430
vn 0.8022 0.1296 0.5828
vn 0.9916 0.1296 0.0000
vn 0.8022 0.1296 -0.5828
vn 0.3064 0.1296 -0.9430
vn -0.3064 0.1296 -0.9430
vn -0.8022 0.1296 -0.5828
vn -0.2968 0.2788 -0.9133
vn 0.2968 0.2788 -0.9133
vn 0.7769 0.2788 -0.5645
vn 0.9603 0.2788 0.0000
vn 0.7769 0.2788 0.5645
vn 0.2968 0.2788 0.9133
vn -0.2968 0.2788 0.9133
vn -0.7769 0.2788 0.5645
vn -0.9603 0.2788 0.0000
vn -0.7769 0.2788 -0.5645
vn -0.3090 0.0000 -0.9511
vn 0.3090 0.0000 -0.9511
vn 1.0000 0.0000 0.0000
vn 0.3090 0.0000 0.9511
vn -0.3090 0.0000 0.9511
vn -1.0000 0.0000 0.0000
vn 0.3064 0.1296 0.9430
vn 0.8090 0.0000 -0.5878
vn 0.8090 0.0000 0.5878
vn -0.8090 0.0000 0.5878
vn -0.8090 0.0000 -0.5878
usemtl BlocksPaper
s off
f 2//1 5//1 3//1
f 1//1 6//1 4//1
f 7//2 10//2 9//2
f 8//2 12//2 11//2
f 13//3 16//3 15//3
f 14//3 18//3 17//3
f 19//4 22//4 21//4
f 20//4 24//4 23//4
f 25//5 28//5 27//5
f 26//5 30//5 29//5
f 32//6 35//6 33//6
f 31//6 36//6 34//6
f 37//7 40//7 39//7
f 38//7 42//7 41//7
f 44//8 47//8 45//8
f 43//8 48//8 46//8
f 50//9 53//9 51//9
f 49//9 54//9 52//9
f 55//10 60//10 58//10
f 81//11 63//11 61//11
f 79//11 65//11 62//11
f 77//11 66//11 64//11
f 79//11 69//11 67//11
f 78//11 71//11 68//11
f 77//11 72//11 70//11
f 79//11 74//11 73//11
f 80//11 76//11 75//11
f 93//12 83//12 82//12
f 93//12 85//12 83//12
f 92//12 86//12 84//12
f 92//12 87//12 86//12
f 92//12 88//12 87//12
f 92//12 89//12 88//12
f 92//12 90//12 89//12
f 92//12 91//12 90//12
f 94//13 97//13 96//13
f 100//14 103//14 102//14
f 101//14 105//14 104//14
f 106//15 109//15 108//15
f 110//16 113//16 112//16
f 111//16 115//16 114//16
f 116//17 119//17 118//17
f 117//17 121//17 120//17
f 123//18 126//18 124//18
f 122//18 127//18 125//18
f 128//19 131//19 130//19
f 129//19 133//19 132//19
f 134//20 137//20 136//20
f 135//20 139//20 138//20
f 140//21 145//21 143//21
f 146//22 149//22 148//22
f 147//22 151//22 150//22
f 153//23 156//23 154//23
f 158//24 161//24 160//24
f 159//24 163//24 162//24
f 184//25 165//25 164//25
f 189//25 168//25 166//25
f 186//25 170//25 167//25
f 188//25 173//25 171//25
f 187//25 175//25 172//25
f 185//25 176//25 174//25
f 190//25 178//25 177//25
f 191//25 181//25 179//25
f 183//25 182//25 180//25
f 213//26 194//26 192//26
f 210//26 197//26 195//26
f 209//26 198//26 196//26
f 212//26 200//26 199//26
f 211//26 206//26 203//26
f 208//26 207//26 205//26
f 214//27 217//27 216//27
f 215//27 219//27 218//27
f 221//28 225//28 224//28
f 226//29 229//29 228//29
f 227//29 231//29 230//29
f 236//30 239//30 238//30
f 237//30 241//30 240//30
f 242//31 245//31 244//31
f 243//31 247//31 246//31
f 249//32 253//32 252//32
f 255//33 258//33 256//33
f 254//33 259//33 257//33
f 261//34 264//34 262//34
f 260//34 265//34 263//34
f 267//35 270//35 268//35
f 292//11 274//11 272//11
f 289//11 275//11 273//11
f 290//11 277//11 276//11
f 290//11 279//11 277//11
f 287//11 280//11 278//11
f 288//11 284//11 282//11
f 293//11 286//11 285//11
f 314//12 296//12 294//12
f 309//12 297//12 295//12
f 311//12 299//12 298//12
f 313//12 302//12 300//12
f 312//12 304//12 301//12
f 310//12 305//12 303//12
f 312//12 307//12 306//12
f 312//12 308//12 307//12
f 316//36 320//36 319//36
f 321//37 324//37 323//37
f 322//37 326//37 325//37
f 327//38 330//38 329//38
f 328//38 332//38 331//38
f 333//39 336//39 335//39
f 334//39 338//39 337//39
f 340//40 343//40 341//40
f 339//40 344//40 342//40
f 346//41 349//41 347//41
f 345//41 350//41 348//41
f 352//42 355//42 353//42
f 358//43 361//43 359//43
f 357//43 362//43 360//43
f 364//44 367//44 365//44
f 363//44 368//44 366//44
f 369//45 372//45 371//45
f 370//45 374//45 373//45
f 393//11 376//11 375//11
f 396//11 379//11 377//11
f 395//11 381//11 378//11
f 394//11 382//11 380//11
f 397//11 385//11 383//11
f 392//11 386//11 384//11
f 398//11 389//11 387//11
f 391//11 390//11 388//11
f 400//46 403//46 401//46
f 399//46 404//46 402//46
f 405//47 408//47 407//47
f 406//47 410//47 409//47
f 415//48 417//48 416//48
f 415//48 418//48 417//48
f 423//49 426//49 425//49
f 424//49 428//49 427//49
f 430//50 433//50 431//50
f 429//50 434//50 432//50
f 439//51 441//51 440//51
f 439//51 442//51 441//51
f 468//11 449//11 447//11
f 463//11 450//11 448//11
f 466//11 453//11 451//11
f 465//11 454//11 452//11
f 466//11 456//11 455//11
f 467//11 459//11 457//11
f 464//11 460//11 458//11
f 466//11 462//11 461//11
s 1
f 56//10 59//10 57//10
f 95//13 99//13 98//13
f 106//15 108//15 107//15
f 141//21 144//21 142//21
f 152//23 157//23 155//23
f 188//25 171//25 169//25
f 210//26 195//26 193//26
f 212//26 201//26 200//26
f 212//26 202//26 201//26
f 212//26 204//26 202//26
f 220//28 223//28 222//28
f 232//52 234//52 233//52
f 232//52 235//52 234//52
f 248//32 251//32 250//32
f 266//35 271//35 269//35
f 291//11 283//11 281//11
f 315//36 318//36 317//36
f 351//42 356//42 354//42
f 411//53 413//53 412//53
f 411//53 414//53 413//53
f 419//54 421//54 420//54
f 419//54 422//54 421//54
f 435//55 437//55 436//55
f 435//55 438//55 437//55
f 443//56 445//56 444//56
f 443//56 446//56 445//56
