# www.echoar.xyz
mtllib Trash bag lowpoly.mtl
o Vert_Material.001_0
v 0.000000 0.228039 0.480000
v 0.000000 0.000000 0.260000
v 0.225167 0.000000 0.130000
v 0.415692 0.228039 0.240000
v 0.225167 0.000000 0.130000
v 0.225167 -0.000000 -0.130000
v 0.415692 0.228039 -0.240000
v 0.225167 -0.000000 -0.130000
v -0.000000 -0.000000 -0.260000
v -0.000000 -0.000000 -0.260000
v -0.225167 -0.000000 -0.130000
v -0.415692 0.228039 -0.240000
v -0.415692 0.228039 -0.240000
v -0.225167 -0.000000 -0.130000
v -0.225167 0.000000 0.130000
v -0.415692 0.228039 0.240000
v -0.225167 0.000000 0.130000
v 0.000000 0.000000 0.260000
v 0.000000 0.840000 0.427328
v 0.000000 0.228039 0.480000
v 0.415692 0.228039 0.240000
v 0.370077 0.840000 0.213664
v 0.415692 0.228039 0.240000
v 0.415692 0.228039 -0.240000
v 0.415692 0.228039 -0.240000
v -0.000000 0.228039 -0.480000
v -0.000000 0.840000 -0.427328
v -0.000000 0.228039 -0.480000
v -0.415692 0.228039 -0.240000
v -0.370077 0.840000 -0.213664
v -0.370077 0.840000 -0.213664
v -0.415692 0.228039 -0.240000
v -0.415692 0.228039 0.240000
v -0.370077 0.840000 0.213664
v -0.415692 0.228039 0.240000
v 0.000000 0.228039 0.480000
v 0.000000 0.840000 0.427328
v 0.370077 0.840000 0.213664
v 0.207846 1.100000 0.120000
v 0.207846 1.100000 0.120000
v 0.370077 0.840000 0.213664
v 0.370077 0.840000 -0.213664
v 0.207846 1.100000 -0.120000
v 0.370077 0.840000 -0.213664
v -0.000000 0.840000 -0.427328
v -0.000000 1.100000 -0.240000
v -0.000000 0.840000 -0.427328
v -0.370077 0.840000 -0.213664
v -0.207846 1.100000 -0.120000
v -0.370077 0.840000 -0.213664
v -0.370077 0.840000 0.213664
v -0.207846 1.100000 0.120000
v -0.370077 0.840000 0.213664
v 0.000000 0.840000 0.427328
v 0.000000 1.200000 0.040000
v 0.000000 1.100000 0.240000
v 0.207846 1.100000 0.120000
v 0.034641 1.200000 0.020000
v 0.207846 1.100000 0.120000
v 0.207846 1.100000 -0.120000
v 0.034641 1.200000 -0.020000
v 0.207846 1.100000 -0.120000
v -0.000000 1.100000 -0.240000
v -0.000000 1.200000 -0.040000
v -0.000000 1.100000 -0.240000
v -0.207846 1.100000 -0.120000
v -0.207846 1.100000 -0.120000
v -0.207846 1.100000 0.120000
v -0.034641 1.200000 0.020000
v -0.034641 1.200000 0.020000
v -0.207846 1.100000 0.120000
v 0.000000 1.100000 0.240000
v -0.118011 1.356019 0.047881
v -0.034641 1.219047 0.020000
v 0.056256 1.313251 0.048097
v 0.000000 0.000000 0.000000
v 0.225167 0.000000 0.130000
v 0.000000 0.000000 0.260000
v 0.225167 -0.000000 -0.130000
v -0.000000 -0.000000 -0.260000
v -0.225167 -0.000000 -0.130000
v -0.225167 0.000000 0.130000
v 0.000000 0.228039 0.480000
v 0.225167 0.000000 0.130000
v 0.415692 0.228039 0.240000
v 0.415692 0.228039 0.240000
v 0.225167 -0.000000 -0.130000
v 0.415692 0.228039 -0.240000
v 0.415692 0.228039 -0.240000
v -0.000000 -0.000000 -0.260000
v -0.000000 0.228039 -0.480000
v -0.000000 -0.000000 -0.260000
v -0.415692 0.228039 -0.240000
v -0.000000 0.228039 -0.480000
v -0.415692 0.228039 -0.240000
v -0.225167 0.000000 0.130000
v -0.415692 0.228039 0.240000
v -0.415692 0.228039 0.240000
v 0.000000 0.000000 0.260000
v 0.000000 0.228039 0.480000
v 0.000000 0.840000 0.427328
v 0.415692 0.228039 0.240000
v 0.370077 0.840000 0.213664
v 0.370077 0.840000 0.213664
v 0.415692 0.228039 -0.240000
v 0.370077 0.840000 -0.213664
v 0.415692 0.228039 -0.240000
v -0.000000 0.840000 -0.427328
v 0.370077 0.840000 -0.213664
v -0.000000 0.228039 -0.480000
v -0.370077 0.840000 -0.213664
v -0.000000 0.840000 -0.427328
v -0.370077 0.840000 -0.213664
v -0.415692 0.228039 0.240000
v -0.370077 0.840000 0.213664
v -0.370077 0.840000 0.213664
v 0.000000 0.228039 0.480000
v 0.000000 0.840000 0.427328
v 0.000000 0.840000 0.427328
v 0.207846 1.100000 0.120000
v 0.000000 1.100000 0.240000
v 0.207846 1.100000 0.120000
v 0.370077 0.840000 -0.213664
v 0.207846 1.100000 -0.120000
v 0.207846 1.100000 -0.120000
v -0.000000 0.840000 -0.427328
v -0.000000 1.100000 -0.240000
v -0.000000 1.100000 -0.240000
v -0.370077 0.840000 -0.213664
v -0.207846 1.100000 -0.120000
v -0.207846 1.100000 -0.120000
v -0.370077 0.840000 0.213664
v -0.207846 1.100000 0.120000
v -0.207846 1.100000 0.120000
v 0.000000 0.840000 0.427328
v 0.000000 1.100000 0.240000
v 0.000000 1.200000 0.040000
v 0.207846 1.100000 0.120000
v 0.034641 1.200000 0.020000
v 0.034641 1.200000 0.020000
v 0.207846 1.100000 -0.120000
v 0.034641 1.200000 -0.020000
v 0.034641 1.200000 -0.020000
v -0.000000 1.100000 -0.240000
v -0.000000 1.200000 -0.040000
v -0.000000 1.200000 -0.040000
v -0.207846 1.100000 -0.120000
v -0.034641 1.200000 -0.020000
v -0.207846 1.100000 -0.120000
v -0.034641 1.200000 0.020000
v -0.034641 1.200000 -0.020000
v -0.034641 1.200000 0.020000
v 0.000000 1.100000 0.240000
v 0.000000 1.200000 0.040000
v -0.118011 1.356019 0.047881
v 0.056256 1.313251 0.048097
v 0.003156 1.381643 0.034026
v -0.034641 1.219047 0.020000
v -0.029142 1.356751 -0.124076
v -0.000000 1.219047 -0.040000
v 0.056256 1.313251 0.048097
v -0.034641 1.219047 0.020000
v 0.034641 1.219047 0.020000
v -0.029142 1.356751 -0.124076
v -0.034641 1.219047 0.020000
v -0.118011 1.356019 0.047881
v 0.003156 1.381643 0.034026
v 0.056256 1.313251 0.048097
v 0.070420 1.382197 -0.046027
v 0.070420 1.382197 -0.046027
v 0.056256 1.313251 0.048097
v 0.034641 1.219047 0.020000
v -0.000000 1.219047 -0.040000
v -0.029142 1.356751 -0.124076
v 0.070420 1.382197 -0.046027
v 0.034641 1.219047 0.020000
v 0.003156 1.381643 0.034026
v 0.070420 1.382197 -0.046027
v -0.029142 1.356751 -0.124076
v -0.118011 1.356019 0.047881
vn 0.3837 -0.6412 0.6646
vn 0.3837 -0.6412 -0.6646
vn -0.7674 -0.6412 0.0000
vn -0.3837 -0.6412 0.6646
vn 0.4986 0.0743 0.8636
vn 0.9972 0.0743 -0.0000
vn 0.4986 0.0743 -0.8636
vn -0.4986 0.0743 -0.8636
vn -0.4986 0.0743 0.8636
vn -0.4242 0.5294 -0.7347
vn -0.8484 0.5294 0.0000
vn -0.4242 0.5294 0.7347
vn 0.2500 0.8660 0.4330
vn 0.5000 0.8660 -0.0000
vn 0.2500 0.8660 -0.4330
vn -0.2500 0.8660 -0.4330
vn -0.5000 0.8660 0.0000
vn -0.2500 0.8660 0.4330
vn -0.0584 -0.2331 0.9707
vn 0.0000 -1.0000 0.0000
vn 0.7674 -0.6412 0.0000
vn -0.3837 -0.6412 -0.6646
vn -0.9972 0.0743 0.0000
vn 0.4242 0.5294 0.7347
vn 0.8484 0.5294 0.0000
vn 0.4242 0.5294 -0.7347
vn 0.0589 0.2448 0.9678
vn -0.7781 -0.4390 -0.4493
vn 0.0000 -0.2858 0.9583
vn -0.8105 -0.4077 -0.4206
vn 0.6177 0.5872 0.5231
vn 0.9755 -0.2196 -0.0141
vn 0.7068 -0.3282 -0.6266
vn -0.1923 0.9747 -0.1142
usemtl Material.001
s off
f 1//1 2//1 3//1
f 7//2 8//2 9//2
f 13//3 14//3 15//3
f 16//4 17//4 18//4
f 19//5 20//5 21//5
f 22//6 23//6 24//6
f 25//7 26//7 27//7
f 28//8 29//8 30//8
f 34//9 35//9 36//9
f 46//10 47//10 48//10
f 49//11 50//11 51//11
f 52//12 53//12 54//12
f 55//13 56//13 57//13
f 58//14 59//14 60//14
f 61//15 62//15 63//15
f 64//16 65//16 66//16
f 67//17 68//17 69//17
f 70//18 71//18 72//18
f 73//19 74//19 75//19
f 76//20 77//20 78//20
f 76//20 79//20 77//20
f 76//20 80//20 79//20
f 76//20 81//20 80//20
f 76//20 82//20 81//20
f 76//20 78//20 82//20
f 83//1 84//1 85//1
f 86//21 87//21 88//21
f 89//2 90//2 91//2
f 92//22 93//22 94//22
f 95//3 96//3 97//3
f 98//4 99//4 100//4
f 101//5 102//5 103//5
f 104//6 105//6 106//6
f 107//7 108//7 109//7
f 110//8 111//8 112//8
f 113//23 114//23 115//23
f 116//9 117//9 118//9
f 119//24 120//24 121//24
f 122//25 123//25 124//25
f 125//26 126//26 127//26
f 128//10 129//10 130//10
f 131//11 132//11 133//11
f 134//12 135//12 136//12
f 137//13 138//13 139//13
f 140//14 141//14 142//14
f 143//15 144//15 145//15
f 146//16 147//16 148//16
f 149//17 150//17 151//17
f 152//18 153//18 154//18
f 155//27 156//27 157//27
f 158//28 159//28 160//28
f 161//29 162//29 163//29
f 164//30 165//30 166//30
f 167//31 168//31 169//31
f 170//32 171//32 172//32
s 1
f 4//21 5//21 6//21
f 10//22 11//22 12//22
f 31//23 32//23 33//23
f 37//24 38//24 39//24
f 40//25 41//25 42//25
f 43//26 44//26 45//26
f 173//33 174//33 175//33
f 173//33 175//33 176//33
f 177//34 178//34 179//34
f 177//34 179//34 180//34
o Vert_Material.002_0
v 0.000000 1.200000 0.040000
v 0.034641 1.200000 0.020000
v 0.034641 1.219047 0.020000
v 0.034641 1.200000 0.020000
v 0.034641 1.200000 -0.020000
v 0.034641 1.219047 0.020000
v 0.034641 1.200000 -0.020000
v -0.000000 1.200000 -0.040000
v -0.000000 1.219047 -0.040000
v -0.000000 1.200000 -0.040000
v -0.034641 1.200000 -0.020000
v -0.000000 1.219047 -0.040000
v -0.034641 1.200000 -0.020000
v -0.034641 1.200000 0.020000
v -0.034641 1.219047 0.020000
v -0.034641 1.200000 0.020000
v 0.000000 1.200000 0.040000
v -0.034641 1.219047 0.020000
v 0.034641 1.200000 -0.020000
v -0.000000 1.219047 -0.040000
v 0.034641 1.219047 0.020000
v -0.034641 1.200000 -0.020000
v -0.034641 1.219047 0.020000
v -0.000000 1.219047 -0.040000
v 0.000000 1.200000 0.040000
v 0.034641 1.219047 0.020000
v -0.034641 1.219047 0.020000
vn 1.0000 -0.0000 -0.0000
vn 0.5000 -0.0000 -0.8660
vn -0.5000 -0.0000 -0.8660
vn -1.0000 0.0000 0.0000
vn -0.5000 0.0000 0.8660
vn -0.5972 0.7241 -0.3448
vn 0.0000 0.7241 0.6896
vn 0.5000 0.0000 0.8660
vn 0.5972 0.7241 -0.3448
usemtl Material.002
s off
f 184//35 185//35 186//35
f 187//36 188//36 189//36
f 190//37 191//37 192//37
f 193//38 194//38 195//38
f 196//39 197//39 198//39
f 202//40 203//40 204//40
f 205//41 206//41 207//41
s 1
f 181//42 182//42 183//42
f 199//43 200//43 201//43
